<?xml version="1.0" encoding="UTF-8" standalone="no"?>
<!DOCTYPE svg PUBLIC "-//W3C//DTD SVG 1.1//EN"
 "http://www.w3.org/Graphics/SVG/1.1/DTD/svg11.dtd">
<!-- Generated by graphviz version 2.47.3 (20210619.1520)
 -->
<!-- Title: dependencies Pages: 1 -->
<svg width="2127pt" height="247pt"
 viewBox="0.00 0.00 2127.00 246.80" xmlns="http://www.w3.org/2000/svg" xmlns:xlink="http://www.w3.org/1999/xlink">
<g id="graph0" class="graph" transform="scale(1 1) rotate(0) translate(4 242.8)">
<title>dependencies</title>
<polygon fill="white" stroke="transparent" points="-4,4 -4,-242.8 2123,-242.8 2123,4 -4,4"/>
<text text-anchor="middle" x="1059.5" y="-8.2" font-family="sans-serif" font-size="14.00">dependencies</text>
<g id="clust1" class="cluster">
<title>cluster_AppModule</title>
<polygon fill="none" stroke="black" stroke-dasharray="1,5" points="8,-32.8 8,-230.8 2111,-230.8 2111,-32.8 8,-32.8"/>
</g>
<g id="clust19" class="cluster">
<title>cluster_AppModule_providers</title>
<polygon fill="none" stroke="black" points="1941,-40.8 1941,-92.8 2103,-92.8 2103,-40.8 1941,-40.8"/>
</g>
<g id="clust18" class="cluster">
<title>cluster_AppModule_bootstrap</title>
<polygon fill="none" stroke="black" points="967,-170.8 967,-222.8 1091,-222.8 1091,-170.8 967,-170.8"/>
</g>
<g id="clust16" class="cluster">
<title>cluster_AppModule_imports</title>
<polygon fill="none" stroke="black" points="1789,-40.8 1789,-92.8 1933,-92.8 1933,-40.8 1789,-40.8"/>
</g>
<g id="clust2" class="cluster">
<title>cluster_AppModule_declarations</title>
<polygon fill="none" stroke="black" points="16,-40.8 16,-92.8 1781,-92.8 1781,-40.8 16,-40.8"/>
</g>
<!-- AdminComponent -->
<g id="node1" class="node">
<title>AdminComponent</title>
<polygon fill="#ffffb3" stroke="black" points="1773.22,-84.8 1652.78,-84.8 1652.78,-48.8 1773.22,-48.8 1773.22,-84.8"/>
<text text-anchor="middle" x="1713" y="-62.6" font-family="Times,serif" font-size="14.00">AdminComponent</text>
</g>
<!-- AppModule -->
<g id="node14" class="node">
<title>AppModule</title>
<polygon fill="#8dd3c7" stroke="black" points="1070.66,-149.8 1067.66,-153.8 1046.66,-153.8 1043.66,-149.8 987.34,-149.8 987.34,-113.8 1070.66,-113.8 1070.66,-149.8"/>
<text text-anchor="middle" x="1029" y="-127.6" font-family="Times,serif" font-size="14.00">AppModule</text>
</g>
<!-- AdminComponent&#45;&gt;AppModule -->
<g id="edge1" class="edge">
<title>AdminComponent&#45;&gt;AppModule</title>
<path fill="none" stroke="black" d="M1713,-84.83C1713,-105.57 1713,-136.8 1713,-136.8 1713,-136.8 1080.76,-136.8 1080.76,-136.8"/>
<polygon fill="black" stroke="black" points="1080.76,-133.3 1070.76,-136.8 1080.76,-140.3 1080.76,-133.3"/>
</g>
<!-- AppComponent -->
<g id="node2" class="node">
<title>AppComponent</title>
<polygon fill="#ffffb3" stroke="black" points="1634.94,-84.8 1529.06,-84.8 1529.06,-48.8 1634.94,-48.8 1634.94,-84.8"/>
<text text-anchor="middle" x="1582" y="-62.6" font-family="Times,serif" font-size="14.00">AppComponent</text>
</g>
<!-- AppComponent&#45;&gt;AppModule -->
<g id="edge2" class="edge">
<title>AppComponent&#45;&gt;AppModule</title>
<path fill="none" stroke="black" d="M1582,-84.91C1582,-104.14 1582,-131.8 1582,-131.8 1582,-131.8 1081.02,-131.8 1081.02,-131.8"/>
<polygon fill="black" stroke="black" points="1081.02,-128.3 1071.02,-131.8 1081.02,-135.3 1081.02,-128.3"/>
</g>
<!-- CartComponent -->
<g id="node3" class="node">
<title>CartComponent</title>
<polygon fill="#ffffb3" stroke="black" points="1511.94,-84.8 1406.06,-84.8 1406.06,-48.8 1511.94,-48.8 1511.94,-84.8"/>
<text text-anchor="middle" x="1459" y="-62.6" font-family="Times,serif" font-size="14.00">CartComponent</text>
</g>
<!-- CartComponent&#45;&gt;AppModule -->
<g id="edge3" class="edge">
<title>CartComponent&#45;&gt;AppModule</title>
<path fill="none" stroke="black" d="M1459,-85.1C1459,-103.07 1459,-127.8 1459,-127.8 1459,-127.8 1081.01,-127.8 1081.01,-127.8"/>
<polygon fill="black" stroke="black" points="1081.01,-124.3 1071.01,-127.8 1081.01,-131.3 1081.01,-124.3"/>
</g>
<!-- CategoryComponent -->
<g id="node4" class="node">
<title>CategoryComponent</title>
<polygon fill="#ffffb3" stroke="black" points="1388.15,-84.8 1255.85,-84.8 1255.85,-48.8 1388.15,-48.8 1388.15,-84.8"/>
<text text-anchor="middle" x="1322" y="-62.6" font-family="Times,serif" font-size="14.00">CategoryComponent</text>
</g>
<!-- CategoryComponent&#45;&gt;AppModule -->
<g id="edge4" class="edge">
<title>CategoryComponent&#45;&gt;AppModule</title>
<path fill="none" stroke="black" d="M1322,-84.83C1322,-101.2 1322,-122.8 1322,-122.8 1322,-122.8 1080.67,-122.8 1080.67,-122.8"/>
<polygon fill="black" stroke="black" points="1080.67,-119.3 1070.67,-122.8 1080.67,-126.3 1080.67,-119.3"/>
</g>
<!-- CheckoutComponent -->
<g id="node5" class="node">
<title>CheckoutComponent</title>
<polygon fill="#ffffb3" stroke="black" points="1237.49,-84.8 1102.51,-84.8 1102.51,-48.8 1237.49,-48.8 1237.49,-84.8"/>
<text text-anchor="middle" x="1170" y="-62.6" font-family="Times,serif" font-size="14.00">CheckoutComponent</text>
</g>
<!-- CheckoutComponent&#45;&gt;AppModule -->
<g id="edge5" class="edge">
<title>CheckoutComponent&#45;&gt;AppModule</title>
<path fill="none" stroke="black" d="M1170,-84.99C1170,-99.98 1170,-118.8 1170,-118.8 1170,-118.8 1080.92,-118.8 1080.92,-118.8"/>
<polygon fill="black" stroke="black" points="1080.92,-115.3 1070.92,-118.8 1080.92,-122.3 1080.92,-115.3"/>
</g>
<!-- FoodComponent -->
<g id="node6" class="node">
<title>FoodComponent</title>
<polygon fill="#ffffb3" stroke="black" points="1084.12,-84.8 973.88,-84.8 973.88,-48.8 1084.12,-48.8 1084.12,-84.8"/>
<text text-anchor="middle" x="1029" y="-62.6" font-family="Times,serif" font-size="14.00">FoodComponent</text>
</g>
<!-- FoodComponent&#45;&gt;AppModule -->
<g id="edge6" class="edge">
<title>FoodComponent&#45;&gt;AppModule</title>
<path fill="none" stroke="black" d="M1029,-84.91C1029,-84.91 1029,-103.79 1029,-103.79"/>
<polygon fill="black" stroke="black" points="1025.5,-103.79 1029,-113.79 1032.5,-103.79 1025.5,-103.79"/>
</g>
<!-- HomeComponent -->
<g id="node7" class="node">
<title>HomeComponent</title>
<polygon fill="#ffffb3" stroke="black" points="955.55,-84.8 840.45,-84.8 840.45,-48.8 955.55,-48.8 955.55,-84.8"/>
<text text-anchor="middle" x="898" y="-62.6" font-family="Times,serif" font-size="14.00">HomeComponent</text>
</g>
<!-- HomeComponent&#45;&gt;AppModule -->
<g id="edge7" class="edge">
<title>HomeComponent&#45;&gt;AppModule</title>
<path fill="none" stroke="black" d="M898,-84.99C898,-99.98 898,-118.8 898,-118.8 898,-118.8 977.19,-118.8 977.19,-118.8"/>
<polygon fill="black" stroke="black" points="977.19,-122.3 987.19,-118.8 977.19,-115.3 977.19,-122.3"/>
</g>
<!-- LoginComponent -->
<g id="node8" class="node">
<title>LoginComponent</title>
<polygon fill="#ffffb3" stroke="black" points="822.28,-84.8 707.72,-84.8 707.72,-48.8 822.28,-48.8 822.28,-84.8"/>
<text text-anchor="middle" x="765" y="-62.6" font-family="Times,serif" font-size="14.00">LoginComponent</text>
</g>
<!-- LoginComponent&#45;&gt;AppModule -->
<g id="edge8" class="edge">
<title>LoginComponent&#45;&gt;AppModule</title>
<path fill="none" stroke="black" d="M765,-84.83C765,-101.2 765,-122.8 765,-122.8 765,-122.8 977.17,-122.8 977.17,-122.8"/>
<polygon fill="black" stroke="black" points="977.17,-126.3 987.17,-122.8 977.17,-119.3 977.17,-126.3"/>
</g>
<!-- MenuComponent -->
<g id="node9" class="node">
<title>MenuComponent</title>
<polygon fill="#ffffb3" stroke="black" points="689.99,-84.8 576.01,-84.8 576.01,-48.8 689.99,-48.8 689.99,-84.8"/>
<text text-anchor="middle" x="633" y="-62.6" font-family="Times,serif" font-size="14.00">MenuComponent</text>
</g>
<!-- MenuComponent&#45;&gt;AppModule -->
<g id="edge9" class="edge">
<title>MenuComponent&#45;&gt;AppModule</title>
<path fill="none" stroke="black" d="M633,-85.1C633,-103.07 633,-127.8 633,-127.8 633,-127.8 977,-127.8 977,-127.8"/>
<polygon fill="black" stroke="black" points="977,-131.3 987,-127.8 977,-124.3 977,-131.3"/>
</g>
<!-- NavbarComponent -->
<g id="node10" class="node">
<title>NavbarComponent</title>
<polygon fill="#ffffb3" stroke="black" points="558.03,-84.8 435.97,-84.8 435.97,-48.8 558.03,-48.8 558.03,-84.8"/>
<text text-anchor="middle" x="497" y="-62.6" font-family="Times,serif" font-size="14.00">NavbarComponent</text>
</g>
<!-- NavbarComponent&#45;&gt;AppModule -->
<g id="edge10" class="edge">
<title>NavbarComponent&#45;&gt;AppModule</title>
<path fill="none" stroke="black" d="M497,-84.91C497,-104.14 497,-131.8 497,-131.8 497,-131.8 977.25,-131.8 977.25,-131.8"/>
<polygon fill="black" stroke="black" points="977.25,-135.3 987.25,-131.8 977.25,-128.3 977.25,-135.3"/>
</g>
<!-- ProfileComponent -->
<g id="node11" class="node">
<title>ProfileComponent</title>
<polygon fill="#ffffb3" stroke="black" points="417.93,-84.8 298.07,-84.8 298.07,-48.8 417.93,-48.8 417.93,-84.8"/>
<text text-anchor="middle" x="358" y="-62.6" font-family="Times,serif" font-size="14.00">ProfileComponent</text>
</g>
<!-- ProfileComponent&#45;&gt;AppModule -->
<g id="edge11" class="edge">
<title>ProfileComponent&#45;&gt;AppModule</title>
<path fill="none" stroke="black" d="M358,-84.83C358,-105.57 358,-136.8 358,-136.8 358,-136.8 977.28,-136.8 977.28,-136.8"/>
<polygon fill="black" stroke="black" points="977.28,-140.3 987.28,-136.8 977.28,-133.3 977.28,-140.3"/>
</g>
<!-- RegisterComponent -->
<g id="node12" class="node">
<title>RegisterComponent</title>
<polygon fill="#ffffb3" stroke="black" points="279.98,-84.8 152.02,-84.8 152.02,-48.8 279.98,-48.8 279.98,-84.8"/>
<text text-anchor="middle" x="216" y="-62.6" font-family="Times,serif" font-size="14.00">RegisterComponent</text>
</g>
<!-- RegisterComponent&#45;&gt;AppModule -->
<g id="edge12" class="edge">
<title>RegisterComponent&#45;&gt;AppModule</title>
<path fill="none" stroke="black" d="M216,-85.09C216,-107.01 216,-140.8 216,-140.8 216,-140.8 977.28,-140.8 977.28,-140.8"/>
<polygon fill="black" stroke="black" points="977.28,-144.3 987.28,-140.8 977.28,-137.3 977.28,-144.3"/>
</g>
<!-- SlideComponent -->
<g id="node13" class="node">
<title>SlideComponent</title>
<polygon fill="#ffffb3" stroke="black" points="134.11,-84.8 23.89,-84.8 23.89,-48.8 134.11,-48.8 134.11,-84.8"/>
<text text-anchor="middle" x="79" y="-62.6" font-family="Times,serif" font-size="14.00">SlideComponent</text>
</g>
<!-- SlideComponent&#45;&gt;AppModule -->
<g id="edge13" class="edge">
<title>SlideComponent&#45;&gt;AppModule</title>
<path fill="none" stroke="black" d="M79,-85.12C79,-108.46 79,-145.8 79,-145.8 79,-145.8 977.26,-145.8 977.26,-145.8"/>
<polygon fill="black" stroke="black" points="977.26,-149.3 987.26,-145.8 977.26,-142.3 977.26,-149.3"/>
</g>
<!-- AppComponent  -->
<g id="node16" class="node">
<title>AppComponent </title>
<polygon fill="#80b1d3" stroke="black" points="1083.44,-214.8 974.56,-214.8 974.56,-178.8 1083.44,-178.8 1083.44,-214.8"/>
<text text-anchor="middle" x="1029" y="-192.6" font-family="Times,serif" font-size="14.00">AppComponent </text>
</g>
<!-- AppModule&#45;&gt;AppComponent  -->
<g id="edge15" class="edge">
<title>AppModule&#45;&gt;AppComponent </title>
<path fill="none" stroke="black" stroke-dasharray="1,5" d="M1029,-149.91C1029,-149.91 1029,-168.79 1029,-168.79"/>
<polygon fill="black" stroke="black" points="1025.5,-168.79 1029,-178.79 1032.5,-168.79 1025.5,-168.79"/>
</g>
<!-- AppRoutingModule -->
<g id="node15" class="node">
<title>AppRoutingModule</title>
<polygon fill="#8dd3c7" stroke="black" points="1925.27,-84.8 1922.27,-88.8 1901.27,-88.8 1898.27,-84.8 1796.73,-84.8 1796.73,-48.8 1925.27,-48.8 1925.27,-84.8"/>
<text text-anchor="middle" x="1861" y="-62.6" font-family="Times,serif" font-size="14.00">AppRoutingModule</text>
</g>
<!-- AppRoutingModule&#45;&gt;AppModule -->
<g id="edge14" class="edge">
<title>AppRoutingModule&#45;&gt;AppModule</title>
<path fill="none" stroke="black" d="M1861,-85.09C1861,-107.01 1861,-140.8 1861,-140.8 1861,-140.8 1080.83,-140.8 1080.83,-140.8"/>
<polygon fill="black" stroke="black" points="1080.83,-137.3 1070.83,-140.8 1080.83,-144.3 1080.83,-137.3"/>
</g>
<!-- AuthInterceptor -->
<g id="node17" class="node">
<title>AuthInterceptor</title>
<ellipse fill="#fdb462" stroke="black" cx="2022" cy="-66.8" rx="72.91" ry="18"/>
<text text-anchor="middle" x="2022" y="-62.6" font-family="Times,serif" font-size="14.00">AuthInterceptor</text>
</g>
<!-- AuthInterceptor&#45;&gt;AppModule -->
<g id="edge16" class="edge">
<title>AuthInterceptor&#45;&gt;AppModule</title>
<path fill="none" stroke="black" d="M2022,-85.12C2022,-108.46 2022,-145.8 2022,-145.8 2022,-145.8 1080.72,-145.8 1080.72,-145.8"/>
<polygon fill="black" stroke="black" points="1080.72,-142.3 1070.72,-145.8 1080.72,-149.3 1080.72,-142.3"/>
</g>
</g>
</svg>
