<?xml version="1.0" encoding="UTF-8" standalone="no"?>
<!DOCTYPE svg PUBLIC "-//W3C//DTD SVG 1.1//EN"
 "http://www.w3.org/Graphics/SVG/1.1/DTD/svg11.dtd">
<!-- Generated by graphviz version 2.47.3 (20210619.1520)
 -->
<!-- Title: dependencies Pages: 1 -->
<svg width="2127pt" height="247pt"
 viewBox="0.00 0.00 2127.00 246.80" xmlns="http://www.w3.org/2000/svg" xmlns:xlink="http://www.w3.org/1999/xlink">
<g id="graph0" class="graph" transform="scale(1 1) rotate(0) translate(4 242.8)">
<title>dependencies</title>
<polygon fill="white" stroke="transparent" points="-4,4 -4,-242.8 2123,-242.8 2123,4 -4,4"/>
<text text-anchor="middle" x="1059.5" y="-8.2" font-family="sans-serif" font-size="14.00">dependencies</text>
<g id="clust1" class="cluster">
<title>cluster_AppModule</title>
<polygon fill="none" stroke="black" stroke-dasharray="1,5" points="8,-32.8 8,-230.8 2111,-230.8 2111,-32.8 8,-32.8"/>
</g>
<g id="clust2" class="cluster">
<title>cluster_AppModule_declarations</title>
<polygon fill="none" stroke="black" points="338,-40.8 338,-92.8 2103,-92.8 2103,-40.8 338,-40.8"/>
</g>
<g id="clust16" class="cluster">
<title>cluster_AppModule_imports</title>
<polygon fill="none" stroke="black" points="186,-40.8 186,-92.8 330,-92.8 330,-40.8 186,-40.8"/>
</g>
<g id="clust18" class="cluster">
<title>cluster_AppModule_bootstrap</title>
<polygon fill="none" stroke="black" points="1025,-170.8 1025,-222.8 1149,-222.8 1149,-170.8 1025,-170.8"/>
</g>
<g id="clust19" class="cluster">
<title>cluster_AppModule_providers</title>
<polygon fill="none" stroke="black" points="16,-40.8 16,-92.8 178,-92.8 178,-40.8 16,-40.8"/>
</g>
<!-- AdminComponent -->
<g id="node1" class="node">
<title>AdminComponent</title>
<polygon fill="#ffffb3" stroke="black" points="2095.22,-84.8 1974.78,-84.8 1974.78,-48.8 2095.22,-48.8 2095.22,-84.8"/>
<text text-anchor="middle" x="2035" y="-62.6" font-family="Times,serif" font-size="14.00">AdminComponent</text>
</g>
<!-- AppModule -->
<g id="node14" class="node">
<title>AppModule</title>
<polygon fill="#8dd3c7" stroke="black" points="1128.66,-149.8 1125.66,-153.8 1104.66,-153.8 1101.66,-149.8 1045.34,-149.8 1045.34,-113.8 1128.66,-113.8 1128.66,-149.8"/>
<text text-anchor="middle" x="1087" y="-127.6" font-family="Times,serif" font-size="14.00">AppModule</text>
</g>
<!-- AdminComponent&#45;&gt;AppModule -->
<g id="edge1" class="edge">
<title>AdminComponent&#45;&gt;AppModule</title>
<path fill="none" stroke="black" d="M2035,-85.12C2035,-108.46 2035,-145.8 2035,-145.8 2035,-145.8 1138.96,-145.8 1138.96,-145.8"/>
<polygon fill="black" stroke="black" points="1138.96,-142.3 1128.96,-145.8 1138.96,-149.3 1138.96,-142.3"/>
</g>
<!-- AppComponent -->
<g id="node2" class="node">
<title>AppComponent</title>
<polygon fill="#ffffb3" stroke="black" points="1956.94,-84.8 1851.06,-84.8 1851.06,-48.8 1956.94,-48.8 1956.94,-84.8"/>
<text text-anchor="middle" x="1904" y="-62.6" font-family="Times,serif" font-size="14.00">AppComponent</text>
</g>
<!-- AppComponent&#45;&gt;AppModule -->
<g id="edge2" class="edge">
<title>AppComponent&#45;&gt;AppModule</title>
<path fill="none" stroke="black" d="M1904,-85.09C1904,-107.01 1904,-140.8 1904,-140.8 1904,-140.8 1138.92,-140.8 1138.92,-140.8"/>
<polygon fill="black" stroke="black" points="1138.92,-137.3 1128.92,-140.8 1138.92,-144.3 1138.92,-137.3"/>
</g>
<!-- CartComponent -->
<g id="node3" class="node">
<title>CartComponent</title>
<polygon fill="#ffffb3" stroke="black" points="1833.94,-84.8 1728.06,-84.8 1728.06,-48.8 1833.94,-48.8 1833.94,-84.8"/>
<text text-anchor="middle" x="1781" y="-62.6" font-family="Times,serif" font-size="14.00">CartComponent</text>
</g>
<!-- CartComponent&#45;&gt;AppModule -->
<g id="edge3" class="edge">
<title>CartComponent&#45;&gt;AppModule</title>
<path fill="none" stroke="black" d="M1781,-84.83C1781,-105.57 1781,-136.8 1781,-136.8 1781,-136.8 1138.85,-136.8 1138.85,-136.8"/>
<polygon fill="black" stroke="black" points="1138.85,-133.3 1128.85,-136.8 1138.85,-140.3 1138.85,-133.3"/>
</g>
<!-- CategoryComponent -->
<g id="node4" class="node">
<title>CategoryComponent</title>
<polygon fill="#ffffb3" stroke="black" points="1710.15,-84.8 1577.85,-84.8 1577.85,-48.8 1710.15,-48.8 1710.15,-84.8"/>
<text text-anchor="middle" x="1644" y="-62.6" font-family="Times,serif" font-size="14.00">CategoryComponent</text>
</g>
<!-- CategoryComponent&#45;&gt;AppModule -->
<g id="edge4" class="edge">
<title>CategoryComponent&#45;&gt;AppModule</title>
<path fill="none" stroke="black" d="M1644,-84.91C1644,-104.14 1644,-131.8 1644,-131.8 1644,-131.8 1138.87,-131.8 1138.87,-131.8"/>
<polygon fill="black" stroke="black" points="1138.87,-128.3 1128.87,-131.8 1138.87,-135.3 1138.87,-128.3"/>
</g>
<!-- CheckoutComponent -->
<g id="node5" class="node">
<title>CheckoutComponent</title>
<polygon fill="#ffffb3" stroke="black" points="1559.49,-84.8 1424.51,-84.8 1424.51,-48.8 1559.49,-48.8 1559.49,-84.8"/>
<text text-anchor="middle" x="1492" y="-62.6" font-family="Times,serif" font-size="14.00">CheckoutComponent</text>
</g>
<!-- CheckoutComponent&#45;&gt;AppModule -->
<g id="edge5" class="edge">
<title>CheckoutComponent&#45;&gt;AppModule</title>
<path fill="none" stroke="black" d="M1492,-85.1C1492,-103.07 1492,-127.8 1492,-127.8 1492,-127.8 1138.82,-127.8 1138.82,-127.8"/>
<polygon fill="black" stroke="black" points="1138.82,-124.3 1128.82,-127.8 1138.82,-131.3 1138.82,-124.3"/>
</g>
<!-- FoodComponent -->
<g id="node6" class="node">
<title>FoodComponent</title>
<polygon fill="#ffffb3" stroke="black" points="1406.12,-84.8 1295.88,-84.8 1295.88,-48.8 1406.12,-48.8 1406.12,-84.8"/>
<text text-anchor="middle" x="1351" y="-62.6" font-family="Times,serif" font-size="14.00">FoodComponent</text>
</g>
<!-- FoodComponent&#45;&gt;AppModule -->
<g id="edge6" class="edge">
<title>FoodComponent&#45;&gt;AppModule</title>
<path fill="none" stroke="black" d="M1351,-84.83C1351,-101.2 1351,-122.8 1351,-122.8 1351,-122.8 1138.83,-122.8 1138.83,-122.8"/>
<polygon fill="black" stroke="black" points="1138.83,-119.3 1128.83,-122.8 1138.83,-126.3 1138.83,-119.3"/>
</g>
<!-- HomeComponent -->
<g id="node7" class="node">
<title>HomeComponent</title>
<polygon fill="#ffffb3" stroke="black" points="1277.55,-84.8 1162.45,-84.8 1162.45,-48.8 1277.55,-48.8 1277.55,-84.8"/>
<text text-anchor="middle" x="1220" y="-62.6" font-family="Times,serif" font-size="14.00">HomeComponent</text>
</g>
<!-- HomeComponent&#45;&gt;AppModule -->
<g id="edge7" class="edge">
<title>HomeComponent&#45;&gt;AppModule</title>
<path fill="none" stroke="black" d="M1220,-84.99C1220,-99.98 1220,-118.8 1220,-118.8 1220,-118.8 1138.72,-118.8 1138.72,-118.8"/>
<polygon fill="black" stroke="black" points="1138.72,-115.3 1128.72,-118.8 1138.72,-122.3 1138.72,-115.3"/>
</g>
<!-- LoginComponent -->
<g id="node8" class="node">
<title>LoginComponent</title>
<polygon fill="#ffffb3" stroke="black" points="1144.28,-84.8 1029.72,-84.8 1029.72,-48.8 1144.28,-48.8 1144.28,-84.8"/>
<text text-anchor="middle" x="1087" y="-62.6" font-family="Times,serif" font-size="14.00">LoginComponent</text>
</g>
<!-- LoginComponent&#45;&gt;AppModule -->
<g id="edge8" class="edge">
<title>LoginComponent&#45;&gt;AppModule</title>
<path fill="none" stroke="black" d="M1087,-84.91C1087,-84.91 1087,-103.79 1087,-103.79"/>
<polygon fill="black" stroke="black" points="1083.5,-103.79 1087,-113.79 1090.5,-103.79 1083.5,-103.79"/>
</g>
<!-- MenuComponent -->
<g id="node9" class="node">
<title>MenuComponent</title>
<polygon fill="#ffffb3" stroke="black" points="1011.99,-84.8 898.01,-84.8 898.01,-48.8 1011.99,-48.8 1011.99,-84.8"/>
<text text-anchor="middle" x="955" y="-62.6" font-family="Times,serif" font-size="14.00">MenuComponent</text>
</g>
<!-- MenuComponent&#45;&gt;AppModule -->
<g id="edge9" class="edge">
<title>MenuComponent&#45;&gt;AppModule</title>
<path fill="none" stroke="black" d="M955,-84.99C955,-99.98 955,-118.8 955,-118.8 955,-118.8 1035.23,-118.8 1035.23,-118.8"/>
<polygon fill="black" stroke="black" points="1035.23,-122.3 1045.23,-118.8 1035.23,-115.3 1035.23,-122.3"/>
</g>
<!-- NavbarComponent -->
<g id="node10" class="node">
<title>NavbarComponent</title>
<polygon fill="#ffffb3" stroke="black" points="880.03,-84.8 757.97,-84.8 757.97,-48.8 880.03,-48.8 880.03,-84.8"/>
<text text-anchor="middle" x="819" y="-62.6" font-family="Times,serif" font-size="14.00">NavbarComponent</text>
</g>
<!-- NavbarComponent&#45;&gt;AppModule -->
<g id="edge10" class="edge">
<title>NavbarComponent&#45;&gt;AppModule</title>
<path fill="none" stroke="black" d="M819,-84.83C819,-101.2 819,-122.8 819,-122.8 819,-122.8 1035.12,-122.8 1035.12,-122.8"/>
<polygon fill="black" stroke="black" points="1035.13,-126.3 1045.12,-122.8 1035.12,-119.3 1035.13,-126.3"/>
</g>
<!-- ProfileComponent -->
<g id="node11" class="node">
<title>ProfileComponent</title>
<polygon fill="#ffffb3" stroke="black" points="739.93,-84.8 620.07,-84.8 620.07,-48.8 739.93,-48.8 739.93,-84.8"/>
<text text-anchor="middle" x="680" y="-62.6" font-family="Times,serif" font-size="14.00">ProfileComponent</text>
</g>
<!-- ProfileComponent&#45;&gt;AppModule -->
<g id="edge11" class="edge">
<title>ProfileComponent&#45;&gt;AppModule</title>
<path fill="none" stroke="black" d="M680,-85.1C680,-103.07 680,-127.8 680,-127.8 680,-127.8 1034.98,-127.8 1034.98,-127.8"/>
<polygon fill="black" stroke="black" points="1034.98,-131.3 1044.98,-127.8 1034.98,-124.3 1034.98,-131.3"/>
</g>
<!-- RegisterComponent -->
<g id="node12" class="node">
<title>RegisterComponent</title>
<polygon fill="#ffffb3" stroke="black" points="601.98,-84.8 474.02,-84.8 474.02,-48.8 601.98,-48.8 601.98,-84.8"/>
<text text-anchor="middle" x="538" y="-62.6" font-family="Times,serif" font-size="14.00">RegisterComponent</text>
</g>
<!-- RegisterComponent&#45;&gt;AppModule -->
<g id="edge12" class="edge">
<title>RegisterComponent&#45;&gt;AppModule</title>
<path fill="none" stroke="black" d="M538,-84.91C538,-104.14 538,-131.8 538,-131.8 538,-131.8 1035.29,-131.8 1035.29,-131.8"/>
<polygon fill="black" stroke="black" points="1035.29,-135.3 1045.29,-131.8 1035.29,-128.3 1035.29,-135.3"/>
</g>
<!-- SlideComponent -->
<g id="node13" class="node">
<title>SlideComponent</title>
<polygon fill="#ffffb3" stroke="black" points="456.11,-84.8 345.89,-84.8 345.89,-48.8 456.11,-48.8 456.11,-84.8"/>
<text text-anchor="middle" x="401" y="-62.6" font-family="Times,serif" font-size="14.00">SlideComponent</text>
</g>
<!-- SlideComponent&#45;&gt;AppModule -->
<g id="edge13" class="edge">
<title>SlideComponent&#45;&gt;AppModule</title>
<path fill="none" stroke="black" d="M401,-84.83C401,-105.57 401,-136.8 401,-136.8 401,-136.8 1035.12,-136.8 1035.12,-136.8"/>
<polygon fill="black" stroke="black" points="1035.12,-140.3 1045.12,-136.8 1035.12,-133.3 1035.12,-140.3"/>
</g>
<!-- AppComponent  -->
<g id="node16" class="node">
<title>AppComponent </title>
<polygon fill="#80b1d3" stroke="black" points="1141.44,-214.8 1032.56,-214.8 1032.56,-178.8 1141.44,-178.8 1141.44,-214.8"/>
<text text-anchor="middle" x="1087" y="-192.6" font-family="Times,serif" font-size="14.00">AppComponent </text>
</g>
<!-- AppModule&#45;&gt;AppComponent  -->
<g id="edge15" class="edge">
<title>AppModule&#45;&gt;AppComponent </title>
<path fill="none" stroke="black" stroke-dasharray="1,5" d="M1087,-149.91C1087,-149.91 1087,-168.79 1087,-168.79"/>
<polygon fill="black" stroke="black" points="1083.5,-168.79 1087,-178.79 1090.5,-168.79 1083.5,-168.79"/>
</g>
<!-- AppRoutingModule -->
<g id="node15" class="node">
<title>AppRoutingModule</title>
<polygon fill="#8dd3c7" stroke="black" points="322.27,-84.8 319.27,-88.8 298.27,-88.8 295.27,-84.8 193.73,-84.8 193.73,-48.8 322.27,-48.8 322.27,-84.8"/>
<text text-anchor="middle" x="258" y="-62.6" font-family="Times,serif" font-size="14.00">AppRoutingModule</text>
</g>
<!-- AppRoutingModule&#45;&gt;AppModule -->
<g id="edge14" class="edge">
<title>AppRoutingModule&#45;&gt;AppModule</title>
<path fill="none" stroke="black" d="M258,-85.09C258,-107.01 258,-140.8 258,-140.8 258,-140.8 1035.32,-140.8 1035.32,-140.8"/>
<polygon fill="black" stroke="black" points="1035.32,-144.3 1045.32,-140.8 1035.32,-137.3 1035.32,-144.3"/>
</g>
<!-- AuthInterceptor -->
<g id="node17" class="node">
<title>AuthInterceptor</title>
<ellipse fill="#fdb462" stroke="black" cx="97" cy="-66.8" rx="72.91" ry="18"/>
<text text-anchor="middle" x="97" y="-62.6" font-family="Times,serif" font-size="14.00">AuthInterceptor</text>
</g>
<!-- AuthInterceptor&#45;&gt;AppModule -->
<g id="edge16" class="edge">
<title>AuthInterceptor&#45;&gt;AppModule</title>
<path fill="none" stroke="black" d="M97,-85.12C97,-108.46 97,-145.8 97,-145.8 97,-145.8 1035.09,-145.8 1035.09,-145.8"/>
<polygon fill="black" stroke="black" points="1035.09,-149.3 1045.09,-145.8 1035.09,-142.3 1035.09,-149.3"/>
</g>
</g>
</svg>
